<?xml version="1.0" encoding="utf-8" standalone="no"?>
<!DOCTYPE svg PUBLIC "-//W3C//DTD SVG 1.1//EN"
  "http://www.w3.org/Graphics/SVG/1.1/DTD/svg11.dtd">
<svg xmlns:xlink="http://www.w3.org/1999/xlink" width="518.740157pt" height="138.897638pt" viewBox="0 0 518.740157 138.897638" xmlns="http://www.w3.org/2000/svg" version="1.1">
 <metadata>
  <rdf:RDF xmlns:dc="http://purl.org/dc/elements/1.1/" xmlns:cc="http://creativecommons.org/ns#" xmlns:rdf="http://www.w3.org/1999/02/22-rdf-syntax-ns#">
   <cc:Work>
    <dc:type rdf:resource="http://purl.org/dc/dcmitype/StillImage"/>
    <dc:date>2026-09-15T09:50:52.471421</dc:date>
    <dc:format>image/svg+xml</dc:format>
    <dc:creator>
     <cc:Agent>
      <dc:title>Matplotlib v3.11.1, https://matplotlib.org/</dc:title>
     </cc:Agent>
    </dc:creator>
   </cc:Work>
  </rdf:RDF>
 </metadata>
 <defs>
  <style type="text/css">*{stroke-linejoin: round; stroke-linecap: butt}</style>
 </defs>
 <g id="figure_1">
  <g id="patch_1">
   <path d="M 0 138.897638 
L 518.740157 138.897638 
L 518.740157 0 
L 0 0 
z
" style="fill: #ffffff"/>
  </g>
  <g id="axes_1">
   <g id="patch_2">
    <path d="M 28.738205 93.994809 
L 145.039748 93.994809 
Q 157.359827 93.994809 157.359827 90.730715 
L 157.359827 14.22034 
Q 157.359827 10.956246 145.039748 10.956246 
L 28.738205 10.956246 
Q 16.418126 10.956246 16.418126 14.22034 
L 16.418126 90.730715 
Q 16.418126 93.994809 28.738205 93.994809 
z
" clip-path="url(#p09ab7c96d3)" style="fill: #f3f6f8; stroke: #b5c4ce; stroke-width: 0.8; stroke-linejoin: miter"/>
   </g>
   <g id="patch_3">
    <path d="M 201.219307 93.994809 
L 317.52085 93.994809 
Q 329.840929 93.994809 329.840929 90.730715 
L 329.840929 14.22034 
Q 329.840929 10.956246 317.52085 10.956246 
L 201.219307 10.956246 
Q 188.899228 10.956246 188.899228 14.22034 
L 188.899228 90.730715 
Q 188.899228 93.994809 201.219307 93.994809 
z
" clip-path="url(#p09ab7c96d3)" style="fill: #f3f6f8; stroke: #b5c4ce; stroke-width: 0.8; stroke-linejoin: miter"/>
   </g>
   <g id="patch_4">
    <path d="M 373.700409 93.994809 
L 490.001953 93.994809 
Q 502.322031 93.994809 502.322031 90.730715 
L 502.322031 14.22034 
Q 502.322031 10.956246 490.001953 10.956246 
L 373.700409 10.956246 
Q 361.380331 10.956246 361.380331 14.22034 
L 361.380331 90.730715 
Q 361.380331 93.994809 373.700409 93.994809 
z
" clip-path="url(#p09ab7c96d3)" style="fill: #f3f6f8; stroke: #b5c4ce; stroke-width: 0.8; stroke-linejoin: miter"/>
   </g>
   <g id="text_1">
    <!-- Transport assembly -->
    <g transform="translate(26.029758 31.831899) scale(0.11 -0.11)">
     <defs>
      <path id="DejaVuSans-Bold-37" d="M 31 4666 
L 4331 4666 
L 4331 3756 
L 2784 3756 
L 2784 0 
L 1581 0 
L 1581 3756 
L 31 3756 
L 31 4666 
z
" transform="scale(0.015625)"/>
      <path id="DejaVuSans-Bold-55" d="M 3138 2547 
Q 2991 2616 2845 2648 
Q 2700 2681 2553 2681 
Q 2122 2681 1889 2404 
Q 1656 2128 1656 1613 
L 1656 0 
L 538 0 
L 538 3500 
L 1656 3500 
L 1656 2925 
Q 1872 3269 2151 3426 
Q 2431 3584 2822 3584 
Q 2878 3584 2943 3579 
Q 3009 3575 3134 3559 
L 3138 2547 
z
" transform="scale(0.015625)"/>
      <path id="DejaVuSans-Bold-44" d="M 2106 1575 
Q 1756 1575 1579 1456 
Q 1403 1338 1403 1106 
Q 1403 894 1545 773 
Q 1688 653 1941 653 
Q 2256 653 2472 879 
Q 2688 1106 2688 1447 
L 2688 1575 
L 2106 1575 
z
M 3816 1997 
L 3816 0 
L 2688 0 
L 2688 519 
Q 2463 200 2181 54 
Q 1900 -91 1497 -91 
Q 953 -91 614 226 
Q 275 544 275 1050 
Q 275 1666 698 1953 
Q 1122 2241 2028 2241 
L 2688 2241 
L 2688 2328 
Q 2688 2594 2478 2717 
Q 2269 2841 1825 2841 
Q 1466 2841 1156 2769 
Q 847 2697 581 2553 
L 581 3406 
Q 941 3494 1303 3539 
Q 1666 3584 2028 3584 
Q 2975 3584 3395 3211 
Q 3816 2838 3816 1997 
z
" transform="scale(0.015625)"/>
      <path id="DejaVuSans-Bold-51" d="M 4056 2131 
L 4056 0 
L 2931 0 
L 2931 347 
L 2931 1631 
Q 2931 2084 2911 2256 
Q 2891 2428 2841 2509 
Q 2775 2619 2662 2680 
Q 2550 2741 2406 2741 
Q 2056 2741 1856 2470 
Q 1656 2200 1656 1722 
L 1656 0 
L 538 0 
L 538 3500 
L 1656 3500 
L 1656 2988 
Q 1909 3294 2193 3439 
Q 2478 3584 2822 3584 
Q 3428 3584 3742 3212 
Q 4056 2841 4056 2131 
z
" transform="scale(0.015625)"/>
      <path id="DejaVuSans-Bold-56" d="M 3272 3391 
L 3272 2541 
Q 2913 2691 2578 2766 
Q 2244 2841 1947 2841 
Q 1628 2841 1473 2761 
Q 1319 2681 1319 2516 
Q 1319 2381 1436 2309 
Q 1553 2238 1856 2203 
L 2053 2175 
Q 2913 2066 3209 1816 
Q 3506 1566 3506 1031 
Q 3506 472 3093 190 
Q 2681 -91 1863 -91 
Q 1516 -91 1145 -36 
Q 775 19 384 128 
L 384 978 
Q 719 816 1070 734 
Q 1422 653 1784 653 
Q 2113 653 2278 743 
Q 2444 834 2444 1013 
Q 2444 1163 2330 1236 
Q 2216 1309 1875 1350 
L 1678 1375 
Q 931 1469 631 1722 
Q 331 1975 331 2491 
Q 331 3047 712 3315 
Q 1094 3584 1881 3584 
Q 2191 3584 2531 3537 
Q 2872 3491 3272 3391 
z
" transform="scale(0.015625)"/>
      <path id="DejaVuSans-Bold-53" d="M 1656 506 
L 1656 -1331 
L 538 -1331 
L 538 3500 
L 1656 3500 
L 1656 2988 
Q 1888 3294 2169 3439 
Q 2450 3584 2816 3584 
Q 3463 3584 3878 3070 
Q 4294 2556 4294 1747 
Q 4294 938 3878 423 
Q 3463 -91 2816 -91 
Q 2450 -91 2169 54 
Q 1888 200 1656 506 
z
M 2400 2772 
Q 2041 2772 1848 2508 
Q 1656 2244 1656 1747 
Q 1656 1250 1848 986 
Q 2041 722 2400 722 
Q 2759 722 2948 984 
Q 3138 1247 3138 1747 
Q 3138 2247 2948 2509 
Q 2759 2772 2400 2772 
z
" transform="scale(0.015625)"/>
      <path id="DejaVuSans-Bold-52" d="M 2203 2784 
Q 1831 2784 1636 2517 
Q 1441 2250 1441 1747 
Q 1441 1244 1636 976 
Q 1831 709 2203 709 
Q 2569 709 2762 976 
Q 2956 1244 2956 1747 
Q 2956 2250 2762 2517 
Q 2569 2784 2203 2784 
z
M 2203 3584 
Q 3106 3584 3614 3096 
Q 4122 2609 4122 1747 
Q 4122 884 3614 396 
Q 3106 -91 2203 -91 
Q 1297 -91 786 396 
Q 275 884 275 1747 
Q 275 2609 786 3096 
Q 1297 3584 2203 3584 
z
" transform="scale(0.015625)"/>
      <path id="DejaVuSans-Bold-57" d="M 1759 4494 
L 1759 3500 
L 2913 3500 
L 2913 2700 
L 1759 2700 
L 1759 1216 
Q 1759 972 1856 886 
Q 1953 800 2241 800 
L 2816 800 
L 2816 0 
L 1856 0 
Q 1194 0 917 276 
Q 641 553 641 1216 
L 641 2700 
L 84 2700 
L 84 3500 
L 641 3500 
L 641 4494 
L 1759 4494 
z
" transform="scale(0.015625)"/>
      <path id="DejaVuSans-Bold-3" transform="scale(0.015625)"/>
      <path id="DejaVuSans-Bold-48" d="M 4031 1759 
L 4031 1441 
L 1416 1441 
Q 1456 1047 1700 850 
Q 1944 653 2381 653 
Q 2734 653 3104 758 
Q 3475 863 3866 1075 
L 3866 213 
Q 3469 63 3072 -14 
Q 2675 -91 2278 -91 
Q 1328 -91 801 392 
Q 275 875 275 1747 
Q 275 2603 792 3093 
Q 1309 3584 2216 3584 
Q 3041 3584 3536 3087 
Q 4031 2591 4031 1759 
z
M 2881 2131 
Q 2881 2450 2695 2645 
Q 2509 2841 2209 2841 
Q 1884 2841 1681 2658 
Q 1478 2475 1428 2131 
L 2881 2131 
z
" transform="scale(0.015625)"/>
      <path id="DejaVuSans-Bold-50" d="M 3781 2919 
Q 3994 3244 4286 3414 
Q 4578 3584 4928 3584 
Q 5531 3584 5847 3212 
Q 6163 2841 6163 2131 
L 6163 0 
L 5038 0 
L 5038 1825 
Q 5041 1866 5042 1909 
Q 5044 1953 5044 2034 
Q 5044 2406 4934 2573 
Q 4825 2741 4581 2741 
Q 4263 2741 4089 2478 
Q 3916 2216 3909 1719 
L 3909 0 
L 2784 0 
L 2784 1825 
Q 2784 2406 2684 2573 
Q 2584 2741 2328 2741 
Q 2006 2741 1831 2477 
Q 1656 2213 1656 1722 
L 1656 0 
L 531 0 
L 531 3500 
L 1656 3500 
L 1656 2988 
Q 1863 3284 2130 3434 
Q 2397 3584 2719 3584 
Q 3081 3584 3359 3409 
Q 3638 3234 3781 2919 
z
" transform="scale(0.015625)"/>
      <path id="DejaVuSans-Bold-45" d="M 2400 722 
Q 2759 722 2948 984 
Q 3138 1247 3138 1747 
Q 3138 2247 2948 2509 
Q 2759 2772 2400 2772 
Q 2041 2772 1848 2508 
Q 1656 2244 1656 1747 
Q 1656 1250 1848 986 
Q 2041 722 2400 722 
z
M 1656 2988 
Q 1888 3294 2169 3439 
Q 2450 3584 2816 3584 
Q 3463 3584 3878 3070 
Q 4294 2556 4294 1747 
Q 4294 938 3878 423 
Q 3463 -91 2816 -91 
Q 2450 -91 2169 54 
Q 1888 200 1656 506 
L 1656 0 
L 538 0 
L 538 4863 
L 1656 4863 
L 1656 2988 
z
" transform="scale(0.015625)"/>
      <path id="DejaVuSans-Bold-4f" d="M 538 4863 
L 1656 4863 
L 1656 0 
L 538 0 
L 538 4863 
z
" transform="scale(0.015625)"/>
      <path id="DejaVuSans-Bold-5c" d="M 78 3500 
L 1197 3500 
L 2138 1125 
L 2938 3500 
L 4056 3500 
L 2584 -331 
Q 2363 -916 2067 -1148 
Q 1772 -1381 1288 -1381 
L 641 -1381 
L 641 -647 
L 991 -647 
Q 1275 -647 1404 -556 
Q 1534 -466 1606 -231 
L 1638 -134 
L 78 3500 
z
" transform="scale(0.015625)"/>
     </defs>
     <use xlink:href="#DejaVuSans-Bold-37"/>
     <use xlink:href="#DejaVuSans-Bold-55" transform="translate(57.234375 0)"/>
     <use xlink:href="#DejaVuSans-Bold-44" transform="translate(106.546875 0)"/>
     <use xlink:href="#DejaVuSans-Bold-51" transform="translate(174.03125 0)"/>
     <use xlink:href="#DejaVuSans-Bold-56" transform="translate(245.21875 0)"/>
     <use xlink:href="#DejaVuSans-Bold-53" transform="translate(304.734375 0)"/>
     <use xlink:href="#DejaVuSans-Bold-52" transform="translate(376.3125 0)"/>
     <use xlink:href="#DejaVuSans-Bold-55" transform="translate(445.015625 0)"/>
     <use xlink:href="#DejaVuSans-Bold-57" transform="translate(494.328125 0)"/>
     <use xlink:href="#DejaVuSans-Bold-3" transform="translate(542.125 0)"/>
     <use xlink:href="#DejaVuSans-Bold-44" transform="translate(576.9375 0)"/>
     <use xlink:href="#DejaVuSans-Bold-56" transform="translate(644.421875 0)"/>
     <use xlink:href="#DejaVuSans-Bold-56" transform="translate(703.9375 0)"/>
     <use xlink:href="#DejaVuSans-Bold-48" transform="translate(763.453125 0)"/>
     <use xlink:href="#DejaVuSans-Bold-50" transform="translate(831.28125 0)"/>
     <use xlink:href="#DejaVuSans-Bold-45" transform="translate(935.484375 0)"/>
     <use xlink:href="#DejaVuSans-Bold-4f" transform="translate(1007.0625 0)"/>
     <use xlink:href="#DejaVuSans-Bold-5c" transform="translate(1041.34375 0)"/>
    </g>
   </g>
   <g id="text_2">
    <!-- Fluxes and sources -->
    <g transform="translate(34.403508 54.027205) scale(0.11 -0.11)">
     <defs>
      <path id="DejaVuSans-29" d="M 628 4666 
L 3309 4666 
L 3309 4134 
L 1259 4134 
L 1259 2759 
L 3109 2759 
L 3109 2228 
L 1259 2228 
L 1259 0 
L 628 0 
L 628 4666 
z
" transform="scale(0.015625)"/>
      <path id="DejaVuSans-4f" d="M 603 4863 
L 1178 4863 
L 1178 0 
L 603 0 
L 603 4863 
z
" transform="scale(0.015625)"/>
      <path id="DejaVuSans-58" d="M 544 1381 
L 544 3500 
L 1119 3500 
L 1119 1403 
Q 1119 906 1312 657 
Q 1506 409 1894 409 
Q 2359 409 2629 706 
Q 2900 1003 2900 1516 
L 2900 3500 
L 3475 3500 
L 3475 0 
L 2900 0 
L 2900 538 
Q 2691 219 2414 64 
Q 2138 -91 1772 -91 
Q 1169 -91 856 284 
Q 544 659 544 1381 
z
M 1991 3584 
L 1991 3584 
z
" transform="scale(0.015625)"/>
      <path id="DejaVuSans-5b" d="M 3513 3500 
L 2247 1797 
L 3578 0 
L 2900 0 
L 1881 1375 
L 863 0 
L 184 0 
L 1544 1831 
L 300 3500 
L 978 3500 
L 1906 2253 
L 2834 3500 
L 3513 3500 
z
" transform="scale(0.015625)"/>
      <path id="DejaVuSans-48" d="M 3597 1894 
L 3597 1613 
L 953 1613 
Q 991 1019 1311 708 
Q 1631 397 2203 397 
Q 2534 397 2845 478 
Q 3156 559 3463 722 
L 3463 178 
Q 3153 47 2828 -22 
Q 2503 -91 2169 -91 
Q 1331 -91 842 396 
Q 353 884 353 1716 
Q 353 2575 817 3079 
Q 1281 3584 2069 3584 
Q 2775 3584 3186 3129 
Q 3597 2675 3597 1894 
z
M 3022 2063 
Q 3016 2534 2758 2815 
Q 2500 3097 2075 3097 
Q 1594 3097 1305 2825 
Q 1016 2553 972 2059 
L 3022 2063 
z
" transform="scale(0.015625)"/>
      <path id="DejaVuSans-56" d="M 2834 3397 
L 2834 2853 
Q 2591 2978 2328 3040 
Q 2066 3103 1784 3103 
Q 1356 3103 1142 2972 
Q 928 2841 928 2578 
Q 928 2378 1081 2264 
Q 1234 2150 1697 2047 
L 1894 2003 
Q 2506 1872 2764 1633 
Q 3022 1394 3022 966 
Q 3022 478 2636 193 
Q 2250 -91 1575 -91 
Q 1294 -91 989 -36 
Q 684 19 347 128 
L 347 722 
Q 666 556 975 473 
Q 1284 391 1588 391 
Q 1994 391 2212 530 
Q 2431 669 2431 922 
Q 2431 1156 2273 1281 
Q 2116 1406 1581 1522 
L 1381 1569 
Q 847 1681 609 1914 
Q 372 2147 372 2553 
Q 372 3047 722 3315 
Q 1072 3584 1716 3584 
Q 2034 3584 2315 3537 
Q 2597 3491 2834 3397 
z
" transform="scale(0.015625)"/>
      <path id="DejaVuSans-3" transform="scale(0.015625)"/>
      <path id="DejaVuSans-44" d="M 2194 1759 
Q 1497 1759 1228 1600 
Q 959 1441 959 1056 
Q 959 750 1161 570 
Q 1363 391 1709 391 
Q 2188 391 2477 730 
Q 2766 1069 2766 1631 
L 2766 1759 
L 2194 1759 
z
M 3341 1997 
L 3341 0 
L 2766 0 
L 2766 531 
Q 2569 213 2275 61 
Q 1981 -91 1556 -91 
Q 1019 -91 701 211 
Q 384 513 384 1019 
Q 384 1609 779 1909 
Q 1175 2209 1959 2209 
L 2766 2209 
L 2766 2266 
Q 2766 2663 2505 2880 
Q 2244 3097 1772 3097 
Q 1472 3097 1187 3025 
Q 903 2953 641 2809 
L 641 3341 
Q 956 3463 1253 3523 
Q 1550 3584 1831 3584 
Q 2591 3584 2966 3190 
Q 3341 2797 3341 1997 
z
" transform="scale(0.015625)"/>
      <path id="DejaVuSans-51" d="M 3513 2113 
L 3513 0 
L 2938 0 
L 2938 2094 
Q 2938 2591 2744 2837 
Q 2550 3084 2163 3084 
Q 1697 3084 1428 2787 
Q 1159 2491 1159 1978 
L 1159 0 
L 581 0 
L 581 3500 
L 1159 3500 
L 1159 2956 
Q 1366 3272 1645 3428 
Q 1925 3584 2291 3584 
Q 2894 3584 3203 3211 
Q 3513 2838 3513 2113 
z
" transform="scale(0.015625)"/>
      <path id="DejaVuSans-47" d="M 2906 2969 
L 2906 4863 
L 3481 4863 
L 3481 0 
L 2906 0 
L 2906 525 
Q 2725 213 2448 61 
Q 2172 -91 1784 -91 
Q 1150 -91 751 415 
Q 353 922 353 1747 
Q 353 2572 751 3078 
Q 1150 3584 1784 3584 
Q 2172 3584 2448 3432 
Q 2725 3281 2906 2969 
z
M 947 1747 
Q 947 1113 1208 752 
Q 1469 391 1925 391 
Q 2381 391 2643 752 
Q 2906 1113 2906 1747 
Q 2906 2381 2643 2742 
Q 2381 3103 1925 3103 
Q 1469 3103 1208 2742 
Q 947 2381 947 1747 
z
" transform="scale(0.015625)"/>
      <path id="DejaVuSans-52" d="M 1959 3097 
Q 1497 3097 1228 2736 
Q 959 2375 959 1747 
Q 959 1119 1226 758 
Q 1494 397 1959 397 
Q 2419 397 2687 759 
Q 2956 1122 2956 1747 
Q 2956 2369 2687 2733 
Q 2419 3097 1959 3097 
z
M 1959 3584 
Q 2709 3584 3137 3096 
Q 3566 2609 3566 1747 
Q 3566 888 3137 398 
Q 2709 -91 1959 -91 
Q 1206 -91 779 398 
Q 353 888 353 1747 
Q 353 2609 779 3096 
Q 1206 3584 1959 3584 
z
" transform="scale(0.015625)"/>
      <path id="DejaVuSans-55" d="M 2631 2963 
Q 2534 3019 2420 3045 
Q 2306 3072 2169 3072 
Q 1681 3072 1420 2755 
Q 1159 2438 1159 1844 
L 1159 0 
L 581 0 
L 581 3500 
L 1159 3500 
L 1159 2956 
Q 1341 3275 1631 3429 
Q 1922 3584 2338 3584 
Q 2397 3584 2469 3576 
Q 2541 3569 2628 3553 
L 2631 2963 
z
" transform="scale(0.015625)"/>
      <path id="DejaVuSans-46" d="M 3122 3366 
L 3122 2828 
Q 2878 2963 2633 3030 
Q 2388 3097 2138 3097 
Q 1578 3097 1268 2742 
Q 959 2388 959 1747 
Q 959 1106 1268 751 
Q 1578 397 2138 397 
Q 2388 397 2633 464 
Q 2878 531 3122 666 
L 3122 134 
Q 2881 22 2623 -34 
Q 2366 -91 2075 -91 
Q 1284 -91 818 406 
Q 353 903 353 1747 
Q 353 2603 823 3093 
Q 1294 3584 2113 3584 
Q 2378 3584 2631 3529 
Q 2884 3475 3122 3366 
z
" transform="scale(0.015625)"/>
     </defs>
     <use xlink:href="#DejaVuSans-29"/>
     <use xlink:href="#DejaVuSans-4f" transform="translate(57.515625 0)"/>
     <use xlink:href="#DejaVuSans-58" transform="translate(85.296875 0)"/>
     <use xlink:href="#DejaVuSans-5b" transform="translate(148.671875 0)"/>
     <use xlink:href="#DejaVuSans-48" transform="translate(204.78125 0)"/>
     <use xlink:href="#DejaVuSans-56" transform="translate(266.3125 0)"/>
     <use xlink:href="#DejaVuSans-3" transform="translate(318.40625 0)"/>
     <use xlink:href="#DejaVuSans-44" transform="translate(350.1875 0)"/>
     <use xlink:href="#DejaVuSans-51" transform="translate(411.46875 0)"/>
     <use xlink:href="#DejaVuSans-47" transform="translate(474.84375 0)"/>
     <use xlink:href="#DejaVuSans-3" transform="translate(538.328125 0)"/>
     <use xlink:href="#DejaVuSans-56" transform="translate(570.109375 0)"/>
     <use xlink:href="#DejaVuSans-52" transform="translate(622.203125 0)"/>
     <use xlink:href="#DejaVuSans-58" transform="translate(683.390625 0)"/>
     <use xlink:href="#DejaVuSans-55" transform="translate(746.765625 0)"/>
     <use xlink:href="#DejaVuSans-46" transform="translate(785.671875 0)"/>
     <use xlink:href="#DejaVuSans-48" transform="translate(840.65625 0)"/>
     <use xlink:href="#DejaVuSans-56" transform="translate(902.1875 0)"/>
    </g>
    <!-- Storage -->
    <g transform="translate(65.368508 67.164471) scale(0.11 -0.11)">
     <defs>
      <path id="DejaVuSans-36" d="M 3425 4513 
L 3425 3897 
Q 3066 4069 2747 4153 
Q 2428 4238 2131 4238 
Q 1616 4238 1336 4038 
Q 1056 3838 1056 3469 
Q 1056 3159 1242 3001 
Q 1428 2844 1947 2747 
L 2328 2669 
Q 3034 2534 3370 2195 
Q 3706 1856 3706 1288 
Q 3706 609 3251 259 
Q 2797 -91 1919 -91 
Q 1588 -91 1214 -16 
Q 841 59 441 206 
L 441 856 
Q 825 641 1194 531 
Q 1563 422 1919 422 
Q 2459 422 2753 634 
Q 3047 847 3047 1241 
Q 3047 1584 2836 1778 
Q 2625 1972 2144 2069 
L 1759 2144 
Q 1053 2284 737 2584 
Q 422 2884 422 3419 
Q 422 4038 858 4394 
Q 1294 4750 2059 4750 
Q 2388 4750 2728 4690 
Q 3069 4631 3425 4513 
z
" transform="scale(0.015625)"/>
      <path id="DejaVuSans-57" d="M 1172 4494 
L 1172 3500 
L 2356 3500 
L 2356 3053 
L 1172 3053 
L 1172 1153 
Q 1172 725 1289 603 
Q 1406 481 1766 481 
L 2356 481 
L 2356 0 
L 1766 0 
Q 1100 0 847 248 
Q 594 497 594 1153 
L 594 3053 
L 172 3053 
L 172 3500 
L 594 3500 
L 594 4494 
L 1172 4494 
z
" transform="scale(0.015625)"/>
      <path id="DejaVuSans-4a" d="M 2906 1791 
Q 2906 2416 2648 2759 
Q 2391 3103 1925 3103 
Q 1463 3103 1205 2759 
Q 947 2416 947 1791 
Q 947 1169 1205 825 
Q 1463 481 1925 481 
Q 2391 481 2648 825 
Q 2906 1169 2906 1791 
z
M 3481 434 
Q 3481 -459 3084 -895 
Q 2688 -1331 1869 -1331 
Q 1566 -1331 1297 -1286 
Q 1028 -1241 775 -1147 
L 775 -588 
Q 1028 -725 1275 -790 
Q 1522 -856 1778 -856 
Q 2344 -856 2625 -561 
Q 2906 -266 2906 331 
L 2906 616 
Q 2728 306 2450 153 
Q 2172 0 1784 0 
Q 1141 0 747 490 
Q 353 981 353 1791 
Q 353 2603 747 3093 
Q 1141 3584 1784 3584 
Q 2172 3584 2450 3431 
Q 2728 3278 2906 2969 
L 2906 3500 
L 3481 3500 
L 3481 434 
z
" transform="scale(0.015625)"/>
     </defs>
     <use xlink:href="#DejaVuSans-36"/>
     <use xlink:href="#DejaVuSans-57" transform="translate(63.484375 0)"/>
     <use xlink:href="#DejaVuSans-52" transform="translate(102.6875 0)"/>
     <use xlink:href="#DejaVuSans-55" transform="translate(163.875 0)"/>
     <use xlink:href="#DejaVuSans-44" transform="translate(204.984375 0)"/>
     <use xlink:href="#DejaVuSans-4a" transform="translate(266.265625 0)"/>
     <use xlink:href="#DejaVuSans-48" transform="translate(329.75 0)"/>
    </g>
    <!-- Previous state -->
    <g transform="translate(47.965305 82.627205) scale(0.11 -0.11)">
     <defs>
      <path id="DejaVuSans-33" d="M 1259 4147 
L 1259 2394 
L 2053 2394 
Q 2494 2394 2734 2622 
Q 2975 2850 2975 3272 
Q 2975 3691 2734 3919 
Q 2494 4147 2053 4147 
L 1259 4147 
z
M 628 4666 
L 2053 4666 
Q 2838 4666 3239 4311 
Q 3641 3956 3641 3272 
Q 3641 2581 3239 2228 
Q 2838 1875 2053 1875 
L 1259 1875 
L 1259 0 
L 628 0 
L 628 4666 
z
" transform="scale(0.015625)"/>
      <path id="DejaVuSans-59" d="M 191 3500 
L 800 3500 
L 1894 563 
L 2988 3500 
L 3597 3500 
L 2284 0 
L 1503 0 
L 191 3500 
z
" transform="scale(0.015625)"/>
      <path id="DejaVuSans-4c" d="M 603 3500 
L 1178 3500 
L 1178 0 
L 603 0 
L 603 3500 
z
M 603 4863 
L 1178 4863 
L 1178 4134 
L 603 4134 
L 603 4863 
z
" transform="scale(0.015625)"/>
     </defs>
     <use xlink:href="#DejaVuSans-33"/>
     <use xlink:href="#DejaVuSans-55" transform="translate(58.546875 0)"/>
     <use xlink:href="#DejaVuSans-48" transform="translate(97.453125 0)"/>
     <use xlink:href="#DejaVuSans-59" transform="translate(158.984375 0)"/>
     <use xlink:href="#DejaVuSans-4c" transform="translate(218.171875 0)"/>
     <use xlink:href="#DejaVuSans-52" transform="translate(245.953125 0)"/>
     <use xlink:href="#DejaVuSans-58" transform="translate(307.140625 0)"/>
     <use xlink:href="#DejaVuSans-56" transform="translate(370.515625 0)"/>
     <use xlink:href="#DejaVuSans-3" transform="translate(422.609375 0)"/>
     <use xlink:href="#DejaVuSans-56" transform="translate(454.390625 0)"/>
     <use xlink:href="#DejaVuSans-57" transform="translate(506.484375 0)"/>
     <use xlink:href="#DejaVuSans-44" transform="translate(545.6875 0)"/>
     <use xlink:href="#DejaVuSans-57" transform="translate(606.96875 0)"/>
     <use xlink:href="#DejaVuSans-48" transform="translate(646.171875 0)"/>
    </g>
   </g>
   <g id="text_3">
    <!-- Three local inputs -->
    <g transform="translate(203.623282 31.831899) scale(0.11 -0.11)">
     <defs>
      <path id="DejaVuSans-Bold-4b" d="M 4056 2131 
L 4056 0 
L 2931 0 
L 2931 347 
L 2931 1625 
Q 2931 2084 2911 2256 
Q 2891 2428 2841 2509 
Q 2775 2619 2662 2680 
Q 2550 2741 2406 2741 
Q 2056 2741 1856 2470 
Q 1656 2200 1656 1722 
L 1656 0 
L 538 0 
L 538 4863 
L 1656 4863 
L 1656 2988 
Q 1909 3294 2193 3439 
Q 2478 3584 2822 3584 
Q 3428 3584 3742 3212 
Q 4056 2841 4056 2131 
z
" transform="scale(0.015625)"/>
      <path id="DejaVuSans-Bold-46" d="M 3366 3391 
L 3366 2478 
Q 3138 2634 2908 2709 
Q 2678 2784 2431 2784 
Q 1963 2784 1702 2511 
Q 1441 2238 1441 1747 
Q 1441 1256 1702 982 
Q 1963 709 2431 709 
Q 2694 709 2930 787 
Q 3166 866 3366 1019 
L 3366 103 
Q 3103 6 2833 -42 
Q 2563 -91 2291 -91 
Q 1344 -91 809 395 
Q 275 881 275 1747 
Q 275 2613 809 3098 
Q 1344 3584 2291 3584 
Q 2566 3584 2833 3536 
Q 3100 3488 3366 3391 
z
" transform="scale(0.015625)"/>
      <path id="DejaVuSans-Bold-4c" d="M 538 3500 
L 1656 3500 
L 1656 0 
L 538 0 
L 538 3500 
z
M 538 4863 
L 1656 4863 
L 1656 3950 
L 538 3950 
L 538 4863 
z
" transform="scale(0.015625)"/>
      <path id="DejaVuSans-Bold-58" d="M 500 1363 
L 500 3500 
L 1625 3500 
L 1625 3150 
Q 1625 2866 1622 2436 
Q 1619 2006 1619 1863 
Q 1619 1441 1641 1255 
Q 1663 1069 1716 984 
Q 1784 875 1895 815 
Q 2006 756 2150 756 
Q 2500 756 2700 1025 
Q 2900 1294 2900 1772 
L 2900 3500 
L 4019 3500 
L 4019 0 
L 2900 0 
L 2900 506 
Q 2647 200 2364 54 
Q 2081 -91 1741 -91 
Q 1134 -91 817 281 
Q 500 653 500 1363 
z
" transform="scale(0.015625)"/>
     </defs>
     <use xlink:href="#DejaVuSans-Bold-37"/>
     <use xlink:href="#DejaVuSans-Bold-4b" transform="translate(68.21875 0)"/>
     <use xlink:href="#DejaVuSans-Bold-55" transform="translate(139.40625 0)"/>
     <use xlink:href="#DejaVuSans-Bold-48" transform="translate(188.71875 0)"/>
     <use xlink:href="#DejaVuSans-Bold-48" transform="translate(256.546875 0)"/>
     <use xlink:href="#DejaVuSans-Bold-3" transform="translate(324.375 0)"/>
     <use xlink:href="#DejaVuSans-Bold-4f" transform="translate(359.1875 0)"/>
     <use xlink:href="#DejaVuSans-Bold-52" transform="translate(393.46875 0)"/>
     <use xlink:href="#DejaVuSans-Bold-46" transform="translate(462.171875 0)"/>
     <use xlink:href="#DejaVuSans-Bold-44" transform="translate(521.453125 0)"/>
     <use xlink:href="#DejaVuSans-Bold-4f" transform="translate(588.9375 0)"/>
     <use xlink:href="#DejaVuSans-Bold-3" transform="translate(623.21875 0)"/>
     <use xlink:href="#DejaVuSans-Bold-4c" transform="translate(658.03125 0)"/>
     <use xlink:href="#DejaVuSans-Bold-51" transform="translate(692.3125 0)"/>
     <use xlink:href="#DejaVuSans-Bold-53" transform="translate(763.5 0)"/>
     <use xlink:href="#DejaVuSans-Bold-58" transform="translate(835.078125 0)"/>
     <use xlink:href="#DejaVuSans-Bold-57" transform="translate(906.265625 0)"/>
     <use xlink:href="#DejaVuSans-Bold-56" transform="translate(954.0625 0)"/>
    </g>
   </g>
   <g id="text_4">
    <!-- $a_i=\dfrac{mA_i}{mB_i+\epsilon}$ -->
    <g transform="translate(227.250079 56.916165) scale(0.11 -0.11)">
     <defs>
      <path id="DejaVuSans-Oblique-44" d="M 3438 1997 
L 3047 0 
L 2472 0 
L 2578 531 
Q 2325 219 2001 64 
Q 1678 -91 1281 -91 
Q 834 -91 548 182 
Q 263 456 263 884 
Q 263 1497 752 1853 
Q 1241 2209 2100 2209 
L 2900 2209 
L 2931 2363 
Q 2938 2388 2941 2417 
Q 2944 2447 2944 2509 
Q 2944 2788 2717 2942 
Q 2491 3097 2081 3097 
Q 1800 3097 1504 3025 
Q 1209 2953 897 2809 
L 997 3341 
Q 1322 3463 1633 3523 
Q 1944 3584 2234 3584 
Q 2853 3584 3176 3315 
Q 3500 3047 3500 2534 
Q 3500 2431 3484 2292 
Q 3469 2153 3438 1997 
z
M 2816 1759 
L 2241 1759 
Q 1534 1759 1195 1570 
Q 856 1381 856 984 
Q 856 709 1029 553 
Q 1203 397 1509 397 
Q 1978 397 2328 733 
Q 2678 1069 2791 1631 
L 2816 1759 
z
" transform="scale(0.015625)"/>
      <path id="DejaVuSans-Oblique-4c" d="M 1172 4863 
L 1747 4863 
L 1606 4134 
L 1031 4134 
L 1172 4863 
z
M 909 3500 
L 1484 3500 
L 800 0 
L 225 0 
L 909 3500 
z
" transform="scale(0.015625)"/>
      <path id="DejaVuSans-20" d="M 678 2906 
L 4684 2906 
L 4684 2381 
L 678 2381 
L 678 2906 
z
M 678 1631 
L 4684 1631 
L 4684 1100 
L 678 1100 
L 678 1631 
z
" transform="scale(0.015625)"/>
      <path id="DejaVuSans-Oblique-50" d="M 5747 2113 
L 5338 0 
L 4763 0 
L 5166 2094 
Q 5191 2228 5203 2325 
Q 5216 2422 5216 2491 
Q 5216 2772 5059 2928 
Q 4903 3084 4622 3084 
Q 4203 3084 3875 2770 
Q 3547 2456 3450 1953 
L 3066 0 
L 2491 0 
L 2900 2094 
Q 2925 2209 2937 2307 
Q 2950 2406 2950 2484 
Q 2950 2769 2794 2926 
Q 2638 3084 2363 3084 
Q 1938 3084 1609 2770 
Q 1281 2456 1184 1953 
L 800 0 
L 225 0 
L 909 3500 
L 1484 3500 
L 1375 2956 
Q 1609 3263 1923 3423 
Q 2238 3584 2597 3584 
Q 2978 3584 3223 3384 
Q 3469 3184 3519 2828 
Q 3781 3197 4126 3390 
Q 4472 3584 4856 3584 
Q 5306 3584 5551 3325 
Q 5797 3066 5797 2591 
Q 5797 2488 5784 2364 
Q 5772 2241 5747 2113 
z
" transform="scale(0.015625)"/>
      <path id="DejaVuSans-Oblique-24" d="M 2356 4666 
L 3072 4666 
L 3938 0 
L 3278 0 
L 3084 1197 
L 984 1197 
L 325 0 
L -341 0 
L 2356 4666 
z
M 2584 4044 
L 1275 1722 
L 2988 1722 
L 2584 4044 
z
" transform="scale(0.015625)"/>
      <path id="DejaVuSans-Oblique-25" d="M 1081 4666 
L 2694 4666 
Q 3350 4666 3675 4422 
Q 4000 4178 4000 3688 
Q 4000 3238 3720 2911 
Q 3441 2584 2988 2516 
Q 3375 2428 3569 2181 
Q 3763 1934 3763 1522 
Q 3763 819 3242 409 
Q 2722 0 1819 0 
L 172 0 
L 1081 4666 
z
M 1234 2228 
L 903 519 
L 1919 519 
Q 2491 519 2800 781 
Q 3109 1044 3109 1522 
Q 3109 1891 2904 2059 
Q 2700 2228 2247 2228 
L 1234 2228 
z
M 1606 4147 
L 1331 2741 
L 2272 2741 
Q 2775 2741 3058 2959 
Q 3341 3178 3341 3566 
Q 3341 3869 3150 4008 
Q 2959 4147 2541 4147 
L 1606 4147 
z
" transform="scale(0.015625)"/>
      <path id="DejaVuSans-e" d="M 2944 4013 
L 2944 2272 
L 4684 2272 
L 4684 1741 
L 2944 1741 
L 2944 0 
L 2419 0 
L 2419 1741 
L 678 1741 
L 678 2272 
L 2419 2272 
L 2419 4013 
L 2944 4013 
z
" transform="scale(0.015625)"/>
      <path id="DejaVuSans-Oblique-349" d="M 1263 1888 
Q 925 1963 778 2166 
Q 669 2309 669 2503 
Q 669 3034 1175 3344 
Q 1575 3588 2188 3588 
Q 2425 3588 2684 3550 
Q 2944 3513 3234 3438 
L 3134 2916 
Q 2847 3006 2606 3047 
Q 2359 3088 2138 3088 
Q 1766 3088 1522 2944 
Q 1228 2772 1228 2522 
Q 1228 2356 1381 2241 
Q 1563 2103 1925 2103 
L 2409 2103 
L 2319 1628 
L 1856 1628 
Q 1425 1628 1172 1469 
Q 828 1253 828 916 
Q 828 703 1013 563 
Q 1244 388 1716 388 
Q 2006 388 2284 444 
Q 2563 503 2806 619 
L 2700 84 
Q 2403 -3 2131 -47 
Q 1859 -91 1609 -91 
Q 866 -91 516 194 
Q 250 413 250 781 
Q 250 1278 600 1584 
Q 859 1813 1263 1888 
z
" transform="scale(0.015625)"/>
     </defs>
     <use xlink:href="#DejaVuSans-Oblique-44" transform="translate(0 0.393555)"/>
     <use xlink:href="#DejaVuSans-Oblique-4c" transform="translate(61.279297 -14.606396) scale(0.7)"/>
     <use xlink:href="#DejaVuSans-20" transform="translate(102.944336 0.393555)"/>
     <use xlink:href="#DejaVuSans-Oblique-50" transform="translate(301.46582 75.09375)"/>
     <use xlink:href="#DejaVuSans-Oblique-24" transform="translate(398.87793 75.09375)"/>
     <use xlink:href="#DejaVuSans-Oblique-4c" transform="translate(467.286133 60.093799) scale(0.7)"/>
     <use xlink:href="#DejaVuSans-Oblique-50" transform="translate(212.46582 -75.206543)"/>
     <use xlink:href="#DejaVuSans-Oblique-25" transform="translate(309.87793 -75.206543)"/>
     <use xlink:href="#DejaVuSans-Oblique-4c" transform="translate(378.481445 -90.206494) scale(0.7)"/>
     <use xlink:href="#DejaVuSans-e" transform="translate(420.146484 -75.206543)"/>
     <use xlink:href="#DejaVuSans-Oblique-349" transform="translate(523.417969 -75.206543)"/>
     <path d="M 212.46582 22.268555 
L 212.46582 28.518555 
L 577.470703 28.518555 
L 577.470703 22.268555 
L 212.46582 22.268555 
z
"/>
    </g>
   </g>
   <g id="text_5">
    <!-- $\beta_i=mB_i\Delta t,\quad u_i^n$ -->
    <g transform="translate(217.075079 85.798016) scale(0.11 -0.11)">
     <defs>
      <path id="DejaVuSans-Oblique-346" d="M 872 216 
L 572 -1331 
L -6 -1331 
L 928 3478 
Q 1206 4903 2538 4903 
Q 3888 4903 3659 3700 
Q 3503 2844 2894 2531 
Q 3713 2250 3553 1416 
Q 3272 -69 1759 -66 
Q 1097 -63 872 216 
z
M 1019 966 
Q 1259 422 1875 425 
Q 2775 425 2966 1406 
Q 3138 2288 1675 2219 
L 1778 2750 
Q 2909 2731 3106 3750 
Q 3241 4438 2509 4434 
Q 1691 4434 1503 3459 
L 1019 966 
z
" transform="scale(0.015625)"/>
      <path id="DejaVuSans-329" d="M 2188 4044 
L 906 525 
L 3472 525 
L 2188 4044 
z
M 50 0 
L 1831 4666 
L 2547 4666 
L 4325 0 
L 50 0 
z
" transform="scale(0.015625)"/>
      <path id="DejaVuSans-Oblique-57" d="M 2706 3500 
L 2619 3053 
L 1472 3053 
L 1100 1153 
Q 1081 1047 1072 975 
Q 1063 903 1063 863 
Q 1063 663 1183 572 
Q 1303 481 1569 481 
L 2150 481 
L 2053 0 
L 1503 0 
Q 991 0 739 200 
Q 488 400 488 806 
Q 488 878 497 964 
Q 506 1050 525 1153 
L 897 3053 
L 409 3053 
L 500 3500 
L 978 3500 
L 1172 4494 
L 1747 4494 
L 1556 3500 
L 2706 3500 
z
" transform="scale(0.015625)"/>
      <path id="DejaVuSans-f" d="M 750 794 
L 1409 794 
L 1409 256 
L 897 -744 
L 494 -744 
L 750 256 
L 750 794 
z
" transform="scale(0.015625)"/>
      <path id="DejaVuSans-Oblique-58" d="M 428 1388 
L 838 3500 
L 1416 3500 
L 1006 1409 
Q 975 1256 961 1147 
Q 947 1038 947 966 
Q 947 700 1109 554 
Q 1272 409 1569 409 
Q 2031 409 2368 721 
Q 2706 1034 2809 1563 
L 3194 3500 
L 3769 3500 
L 3091 0 
L 2516 0 
L 2631 550 
Q 2388 244 2052 76 
Q 1716 -91 1338 -91 
Q 878 -91 622 161 
Q 366 413 366 863 
Q 366 956 381 1097 
Q 397 1238 428 1388 
z
" transform="scale(0.015625)"/>
      <path id="DejaVuSans-Oblique-51" d="M 3566 2113 
L 3156 0 
L 2578 0 
L 2988 2091 
Q 3016 2238 3031 2350 
Q 3047 2463 3047 2528 
Q 3047 2791 2881 2937 
Q 2716 3084 2419 3084 
Q 1956 3084 1622 2776 
Q 1288 2469 1184 1941 
L 800 0 
L 225 0 
L 903 3500 
L 1478 3500 
L 1363 2950 
Q 1603 3253 1940 3418 
Q 2278 3584 2650 3584 
Q 3113 3584 3367 3334 
Q 3622 3084 3622 2631 
Q 3622 2519 3608 2391 
Q 3594 2263 3566 2113 
z
" transform="scale(0.015625)"/>
     </defs>
     <use xlink:href="#DejaVuSans-Oblique-346" transform="translate(0 0.05)"/>
     <use xlink:href="#DejaVuSans-Oblique-4c" transform="translate(63.818359 -14.949951) scale(0.7)"/>
     <use xlink:href="#DejaVuSans-20" transform="translate(105.483398 0.05)"/>
     <use xlink:href="#DejaVuSans-Oblique-50" transform="translate(208.754883 0.05)"/>
     <use xlink:href="#DejaVuSans-Oblique-25" transform="translate(306.166992 0.05)"/>
     <use xlink:href="#DejaVuSans-Oblique-4c" transform="translate(374.770508 -14.949951) scale(0.7)"/>
     <use xlink:href="#DejaVuSans-329" transform="translate(396.953125 0.05)"/>
     <use xlink:href="#DejaVuSans-Oblique-57" transform="translate(465.361328 0.05)"/>
     <use xlink:href="#DejaVuSans-f" transform="translate(504.570312 0.05)"/>
     <use xlink:href="#DejaVuSans-Oblique-58" transform="translate(653.251953 0.05)"/>
     <use xlink:href="#DejaVuSans-Oblique-51" transform="translate(721.097005 43.8) scale(0.7)"/>
     <use xlink:href="#DejaVuSans-Oblique-4c" transform="translate(716.630859 -34.389062) scale(0.7)"/>
    </g>
   </g>
   <g id="text_6">
    <!-- Selected inverse -->
    <g transform="translate(380.239697 31.831899) scale(0.11 -0.11)">
     <defs>
      <path id="DejaVuSans-Bold-36" d="M 3834 4519 
L 3834 3531 
Q 3450 3703 3084 3790 
Q 2719 3878 2394 3878 
Q 1963 3878 1756 3759 
Q 1550 3641 1550 3391 
Q 1550 3203 1689 3098 
Q 1828 2994 2194 2919 
L 2706 2816 
Q 3484 2659 3812 2340 
Q 4141 2022 4141 1434 
Q 4141 663 3683 286 
Q 3225 -91 2284 -91 
Q 1841 -91 1394 -6 
Q 947 78 500 244 
L 500 1259 
Q 947 1022 1364 901 
Q 1781 781 2169 781 
Q 2563 781 2772 912 
Q 2981 1044 2981 1288 
Q 2981 1506 2839 1625 
Q 2697 1744 2272 1838 
L 1806 1941 
Q 1106 2091 782 2419 
Q 459 2747 459 3303 
Q 459 4000 909 4375 
Q 1359 4750 2203 4750 
Q 2588 4750 2994 4692 
Q 3400 4634 3834 4519 
z
" transform="scale(0.015625)"/>
      <path id="DejaVuSans-Bold-47" d="M 2919 2988 
L 2919 4863 
L 4044 4863 
L 4044 0 
L 2919 0 
L 2919 506 
Q 2688 197 2409 53 
Q 2131 -91 1766 -91 
Q 1119 -91 703 423 
Q 288 938 288 1747 
Q 288 2556 703 3070 
Q 1119 3584 1766 3584 
Q 2128 3584 2408 3439 
Q 2688 3294 2919 2988 
z
M 2181 722 
Q 2541 722 2730 984 
Q 2919 1247 2919 1747 
Q 2919 2247 2730 2509 
Q 2541 2772 2181 2772 
Q 1825 2772 1636 2509 
Q 1447 2247 1447 1747 
Q 1447 1247 1636 984 
Q 1825 722 2181 722 
z
" transform="scale(0.015625)"/>
      <path id="DejaVuSans-Bold-59" d="M 97 3500 
L 1216 3500 
L 2088 1081 
L 2956 3500 
L 4078 3500 
L 2700 0 
L 1472 0 
L 97 3500 
z
" transform="scale(0.015625)"/>
     </defs>
     <use xlink:href="#DejaVuSans-Bold-36"/>
     <use xlink:href="#DejaVuSans-Bold-48" transform="translate(72.015625 0)"/>
     <use xlink:href="#DejaVuSans-Bold-4f" transform="translate(139.84375 0)"/>
     <use xlink:href="#DejaVuSans-Bold-48" transform="translate(174.125 0)"/>
     <use xlink:href="#DejaVuSans-Bold-46" transform="translate(241.953125 0)"/>
     <use xlink:href="#DejaVuSans-Bold-57" transform="translate(301.234375 0)"/>
     <use xlink:href="#DejaVuSans-Bold-48" transform="translate(349.03125 0)"/>
     <use xlink:href="#DejaVuSans-Bold-47" transform="translate(416.859375 0)"/>
     <use xlink:href="#DejaVuSans-Bold-3" transform="translate(488.4375 0)"/>
     <use xlink:href="#DejaVuSans-Bold-4c" transform="translate(523.25 0)"/>
     <use xlink:href="#DejaVuSans-Bold-51" transform="translate(557.53125 0)"/>
     <use xlink:href="#DejaVuSans-Bold-59" transform="translate(628.71875 0)"/>
     <use xlink:href="#DejaVuSans-Bold-48" transform="translate(693.90625 0)"/>
     <use xlink:href="#DejaVuSans-Bold-55" transform="translate(761.734375 0)"/>
     <use xlink:href="#DejaVuSans-Bold-56" transform="translate(811.046875 0)"/>
     <use xlink:href="#DejaVuSans-Bold-48" transform="translate(870.5625 0)"/>
    </g>
   </g>
   <g id="text_7">
    <!-- $\hat u_i=\widehat\Phi(a_i,\beta_i,u_i^n)$ -->
    <g transform="translate(390.436181 67.856268) scale(0.11 -0.11)">
     <defs>
      <path id="DejaVuSans-2b3" d="M -1831 5119 
L -1369 5119 
L -603 3944 
L -1038 3944 
L -1600 4709 
L -2163 3944 
L -2597 3944 
L -1831 5119 
z
M -1600 3584 
L -1600 3584 
z
" transform="scale(0.015625)"/>
      <path id="STIXSizeTwoSym-Regular-12" d="M -1094 3610 
L -1728 3610 
L -4224 4538 
L -6726 3610 
L -7360 3610 
L -4378 4973 
L -4070 4973 
L -1094 3610 
z
" transform="scale(0.015625)"/>
      <path id="DejaVuSans-33a" d="M 2206 3644 
Q 1738 3578 1431 3306 
Q 1025 2947 1025 2328 
Q 1025 1713 1431 1353 
Q 1738 1081 2206 1016 
L 2206 3644 
z
M 2838 1016 
Q 3306 1081 3613 1353 
Q 4013 1713 4013 2328 
Q 4013 2947 3613 3306 
Q 3306 3578 2838 3644 
L 2838 1016 
z
M 2206 494 
Q 1444 563 950 981 
Q 359 1481 359 2328 
Q 359 3175 950 3678 
Q 1441 4100 2206 4169 
L 2206 4666 
L 2838 4666 
L 2838 4169 
Q 3600 4097 4091 3678 
Q 4678 3175 4678 2328 
Q 4678 1484 4091 981 
Q 3600 563 2838 491 
L 2838 0 
L 2206 0 
L 2206 494 
z
" transform="scale(0.015625)"/>
      <path id="DejaVuSans-b" d="M 1984 4856 
Q 1566 4138 1362 3434 
Q 1159 2731 1159 2009 
Q 1159 1288 1364 580 
Q 1569 -128 1984 -844 
L 1484 -844 
Q 1016 -109 783 600 
Q 550 1309 550 2009 
Q 550 2706 781 3412 
Q 1013 4119 1484 4856 
L 1984 4856 
z
" transform="scale(0.015625)"/>
      <path id="DejaVuSans-c" d="M 513 4856 
L 1013 4856 
Q 1481 4119 1714 3412 
Q 1947 2706 1947 2009 
Q 1947 1309 1714 600 
Q 1481 -109 1013 -844 
L 513 -844 
Q 928 -128 1133 580 
Q 1338 1288 1338 2009 
Q 1338 2731 1133 3434 
Q 928 4138 513 4856 
z
" transform="scale(0.015625)"/>
     </defs>
     <use xlink:href="#DejaVuSans-2b3" transform="translate(57.871094 12.109375)"/>
     <use xlink:href="#DejaVuSans-Oblique-58" transform="translate(0 0.921875)"/>
     <use xlink:href="#DejaVuSans-Oblique-4c" transform="translate(64.335938 -14.078076) scale(0.7)"/>
     <use xlink:href="#DejaVuSans-20" transform="translate(106.000977 0.921875)"/>
     <use xlink:href="#STIXSizeTwoSym-Regular-12" transform="translate(288.538086 47.453125) scale(0.689275)"/>
     <use xlink:href="#DejaVuSans-33a" transform="translate(209.272461 0.921875)"/>
     <use xlink:href="#DejaVuSans-b" transform="translate(287.983398 0.921875)"/>
     <use xlink:href="#DejaVuSans-Oblique-44" transform="translate(326.99707 0.921875)"/>
     <use xlink:href="#DejaVuSans-Oblique-4c" transform="translate(388.276367 -14.078076) scale(0.7)"/>
     <use xlink:href="#DejaVuSans-f" transform="translate(410.458984 0.921875)"/>
     <use xlink:href="#DejaVuSans-Oblique-346" transform="translate(461.728516 0.921875)"/>
     <use xlink:href="#DejaVuSans-Oblique-4c" transform="translate(525.546875 -14.078076) scale(0.7)"/>
     <use xlink:href="#DejaVuSans-f" transform="translate(547.729492 0.921875)"/>
     <use xlink:href="#DejaVuSans-Oblique-58" transform="translate(598.999023 0.921875)"/>
     <use xlink:href="#DejaVuSans-Oblique-51" transform="translate(666.844076 44.671875) scale(0.7)"/>
     <use xlink:href="#DejaVuSans-Oblique-4c" transform="translate(662.37793 -33.517188) scale(0.7)"/>
     <use xlink:href="#DejaVuSans-c" transform="translate(713.943685 0.921875)"/>
    </g>
   </g>
   <g id="patch_5">
    <path d="M 159.35799 53.781165 
Q 173.127914 53.781165 185.444394 53.781165 
" style="fill: none; stroke: #0072b2; stroke-width: 1.3; stroke-linecap: round"/>
    <path d="M 180.644394 51.381165 
L 185.444394 53.781165 
L 180.644394 56.181165 
" style="fill: none; stroke: #0072b2; stroke-width: 1.3; stroke-linecap: round"/>
   </g>
   <g id="patch_6">
    <path d="M 331.839092 53.781165 
Q 345.609016 53.781165 357.925496 53.781165 
" style="fill: none; stroke: #0072b2; stroke-width: 1.3; stroke-linecap: round"/>
    <path d="M 353.125496 51.381165 
L 357.925496 53.781165 
L 353.125496 56.181165 
" style="fill: none; stroke: #0072b2; stroke-width: 1.3; stroke-linecap: round"/>
   </g>
   <g id="text_8">
    <!-- $u_i+\beta_i[f(u_i)-a_i]=u_i^n$ -->
    <g transform="translate(193.330079 119.063055) scale(0.13 -0.13)">
     <defs>
      <path id="DejaVuSans-3e" d="M 550 4863 
L 1875 4863 
L 1875 4416 
L 1125 4416 
L 1125 -397 
L 1875 -397 
L 1875 -844 
L 550 -844 
L 550 4863 
z
" transform="scale(0.015625)"/>
      <path id="DejaVuSans-Oblique-49" d="M 3059 4863 
L 2969 4384 
L 2419 4384 
Q 2106 4384 1964 4261 
Q 1822 4138 1753 3809 
L 1691 3500 
L 2638 3500 
L 2553 3053 
L 1606 3053 
L 1013 0 
L 434 0 
L 1031 3053 
L 481 3053 
L 563 3500 
L 1113 3500 
L 1159 3744 
Q 1278 4363 1576 4613 
Q 1875 4863 2516 4863 
L 3059 4863 
z
" transform="scale(0.015625)"/>
      <path id="DejaVuSans-c9c" d="M 678 2272 
L 4684 2272 
L 4684 1741 
L 678 1741 
L 678 2272 
z
" transform="scale(0.015625)"/>
      <path id="DejaVuSans-40" d="M 1947 4863 
L 1947 -844 
L 622 -844 
L 622 -397 
L 1369 -397 
L 1369 4416 
L 622 4416 
L 622 4863 
L 1947 4863 
z
" transform="scale(0.015625)"/>
     </defs>
     <use xlink:href="#DejaVuSans-Oblique-58" transform="translate(0 0.05)"/>
     <use xlink:href="#DejaVuSans-Oblique-4c" transform="translate(63.378906 -14.949951) scale(0.7)"/>
     <use xlink:href="#DejaVuSans-e" transform="translate(105.043945 0.05)"/>
     <use xlink:href="#DejaVuSans-Oblique-346" transform="translate(208.31543 0.05)"/>
     <use xlink:href="#DejaVuSans-Oblique-4c" transform="translate(272.133789 -14.949951) scale(0.7)"/>
     <use xlink:href="#DejaVuSans-3e" transform="translate(294.316406 0.05)"/>
     <use xlink:href="#DejaVuSans-Oblique-49" transform="translate(333.330078 0.05)"/>
     <use xlink:href="#DejaVuSans-b" transform="translate(368.535156 0.05)"/>
     <use xlink:href="#DejaVuSans-Oblique-58" transform="translate(407.548828 0.05)"/>
     <use xlink:href="#DejaVuSans-Oblique-4c" transform="translate(470.927734 -14.949951) scale(0.7)"/>
     <use xlink:href="#DejaVuSans-c" transform="translate(493.110352 0.05)"/>
     <use xlink:href="#DejaVuSans-c9c" transform="translate(551.606445 0.05)"/>
     <use xlink:href="#DejaVuSans-Oblique-44" transform="translate(654.87793 0.05)"/>
     <use xlink:href="#DejaVuSans-Oblique-4c" transform="translate(716.157227 -14.949951) scale(0.7)"/>
     <use xlink:href="#DejaVuSans-40" transform="translate(738.339844 0.05)"/>
     <use xlink:href="#DejaVuSans-20" transform="translate(796.835938 0.05)"/>
     <use xlink:href="#DejaVuSans-Oblique-58" transform="translate(900.107422 0.05)"/>
     <use xlink:href="#DejaVuSans-Oblique-51" transform="translate(967.952474 43.8) scale(0.7)"/>
     <use xlink:href="#DejaVuSans-Oblique-4c" transform="translate(963.486328 -34.389062) scale(0.7)"/>
    </g>
   </g>
  </g>
 </g>
 <defs>
  <clipPath id="p09ab7c96d3">
   <rect x="12.968504" y="4.166929" width="492.80315" height="130.56378"/>
  </clipPath>
 </defs>
</svg>
